<?xml version="1.0" encoding="UTF-8" standalone="no"?>
<svg width="30px" height="35px" viewBox="0 0 30 35" version="1.1" xmlns="http://www.w3.org/2000/svg" xmlns:xlink="http://www.w3.org/1999/xlink">
    <!-- Generator: Sketch 45.2 (43514) - http://www.bohemiancoding.com/sketch -->
    <title>noun_1102125_cc copy 2</title>
    <desc>Created with Sketch.</desc>
    <defs></defs>
    <g id="Page-1" stroke="none" stroke-width="1" fill="none" fill-rule="evenodd">
        <g id="main" transform="translate(-437.000000, -1947.000000)" fill-rule="nonzero" fill="#3DCF62">
            <g id="noun_1102125_cc-copy-2" transform="translate(437.000000, 1947.000000)">
                <path d="M29.2501876,23.3311909 C27.4687419,29.1352556 21.3773473,36.203572 16.9524663,34.8818543 C16.2054084,34.6519904 15.5158166,34.1922625 14.9411567,33.5601366 C14.3664968,34.1922625 13.676905,34.6519904 12.9298472,34.8818543 C8.44750014,36.203572 2.35610548,29.1927216 0.632125861,23.3311909 C-0.344795924,20.1130956 -0.287329937,16.4352724 1.55158166,13.561973 C3.33302727,10.8036056 6.78098651,8.73483007 10.0565478,8.73483007 C11.5506635,8.73483007 12.9298472,9.13709199 14.0791669,9.76921785 C13.734371,8.39003415 12.7574492,6.03392867 9.88414982,3.1606293 C9.5393539,2.81583338 9.5393539,2.29863949 9.88414982,1.95384357 C10.2289457,1.60904765 10.7461396,1.60904765 11.0909356,1.95384357 C14.4239628,5.28687083 15.5158166,8.04523823 15.8031465,9.71175186 C16.9524663,9.079626 18.274184,8.73483007 19.7682996,8.73483007 C23.1013269,8.73483007 26.5492861,10.7461396 28.2732658,13.561973 C30.1696434,16.4927384 30.2271093,20.1130956 29.2501876,23.3311909 Z M20.2280275,7.7004423 C24.1931807,6.14886064 26.2619562,1.55158166 26.2619562,1.55158166 C26.2619562,1.55158166 21.6072112,-0.402261911 17.6995241,1.20678573 C15.9180785,1.89637758 14.9986227,3.96515313 15.7456805,5.74659873 C16.4352724,7.52804434 18.4465819,8.39003415 20.2280275,7.7004423 Z" id="Shape"></path>
            </g>
        </g>
    </g>
</svg>