<?xml version="1.0" encoding="UTF-8"?>
<svg width="32px" height="32px" viewBox="0 0 32 32" version="1.1" xmlns="http://www.w3.org/2000/svg" xmlns:xlink="http://www.w3.org/1999/xlink">
    <!-- Generator: Sketch 47 (45396) - http://www.bohemiancoding.com/sketch -->
    <title>action</title>
    <desc>Created with Sketch.</desc>
    <defs></defs>
    <g id="polish" stroke="none" stroke-width="1" fill="none" fill-rule="evenodd">
        <g id="action" fill-rule="nonzero" fill="#73708C">
            <g id="action--2" transform="translate(7.000000, 2.000000)">
                <g id="Group">
                    <g transform="translate(0.000000, 0.000084)" id="Shape">
                        <path d="M7.36358182,5.11109443 C6.01794545,5.11109443 4.90909091,6.24283701 4.90909091,7.61624907 L4.90909091,14.3836794 C4.50373636,13.8302545 4.06276364,13.4070671 3.54548182,13.2615789 C2.83628182,13.0621212 2.20099091,13.3215356 1.77278182,13.5747232 C1.25555455,13.9940499 0.803781818,14.3202155 0.622227273,14.9925572 C0.451690909,15.6267928 0.577609091,16.3087488 0.877909091,17.097583 C2.31559091,20.6132613 4.05717273,24.0216022 6.20451818,26.5354052 C6.35672727,26.7140143 6.5862,26.8213769 6.81812727,26.822468 L14.1816273,26.822468 C14.3552455,26.8219113 14.5281818,26.7630124 14.6674364,26.6571974 C15.5215364,26.0114075 16.1595,24.9646259 16.6957909,23.734517 C17.2321091,22.5044081 17.6362909,21.0795792 17.8463455,19.6897361 C18.0564,18.299893 18.0721364,16.9254566 17.7611182,15.7928289 C17.4448636,14.6410645 16.6106182,13.6103187 15.3662727,13.4616433 C15.1555636,13.4555196 14.9285182,13.4906279 14.7441273,13.513834 C14.5837636,13.1992395 14.3681727,12.9466058 14.1304909,12.7744655 C13.6635,12.4362223 13.2023182,12.3414857 12.8009727,12.3482412 C12.513,12.353168 12.2514273,12.4530541 11.9998636,12.5917979 C11.8991455,12.4691177 11.8179818,12.3127543 11.7015545,12.2264629 C11.2358727,11.8812943 10.7574273,11.7915402 10.3635273,11.7915402 C10.1770636,11.7915402 9.99741818,11.8204163 9.81807273,11.8611278 L9.81807273,7.61624907 C9.81807273,6.24283701 8.70921818,5.11109443 7.36358182,5.11109443 Z M7.36358182,6.78119753 C7.83100909,6.78119753 8.18173636,7.13918691 8.18173636,7.61624907 L8.18173636,13.4616433 C8.17900909,13.8386468 8.46065455,14.1974156 8.82109091,14.2798379 C9.18155455,14.3622603 9.58508182,14.1598744 9.74138182,13.8182799 C10.0389818,13.424194 10.3483909,13.4331291 10.7385273,13.5747232 C10.8361364,13.6470804 10.9089818,13.6886437 10.9089818,14.0183443 C10.9089818,14.3918963 11.1828818,14.7478064 11.5390636,14.8336998 C11.8952727,14.9195932 12.2973,14.7269524 12.4600909,14.3923778 C12.6728182,13.9416448 12.8114455,13.9966302 13.1845091,14.1401227 C13.2963545,14.2211394 13.3634727,14.2612274 13.3634727,14.5750454 C13.3662,14.896209 13.5668727,15.2070625 13.8554455,15.3351232 C14.1440182,15.4631839 14.5039909,15.4013511 14.7356182,15.1839371 C14.7446182,15.2023918 15.0998727,15.0849974 15.2299091,15.1317464 C15.7368818,15.2100742 15.9848727,15.50529 16.1929636,16.2538469 C16.4085545,17.0294595 16.4221909,18.2027264 16.2355909,19.4374809 C16.0489636,20.6722355 15.6660545,21.9775045 15.1958182,23.0560376 C14.7690545,24.0349018 14.2554,24.765981 13.8322091,25.1523649 L7.22721818,25.1523649 C5.70182727,23.044024 2.1825,17.3728215 2.19889091,15.4448907 C2.42004545,15.073791 2.7645,14.8330485 3.11080909,14.8707928 C3.54474545,15.0943027 3.65252727,15.3237804 3.91194545,15.8015273 L4.99431818,18.0109345 C5.15708182,18.3455091 5.55910909,18.5381499 5.91531818,18.4522565 C6.2715,18.3663631 6.54654545,18.010453 6.54542727,17.636901 L6.54542727,7.61624907 C6.54542727,7.13918691 6.89615455,6.78119753 7.36358182,6.78119753 L7.36358182,6.78119753 Z"></path>
                        <path d="M2.69318182,0.342855464 L0.238636364,2.8480101 C0.0987818182,2.97451206 0.00327272727,3.22126144 0,3.43950495 C0.00654545455,3.66393062 0.0631909091,3.85439753 0.238636364,4.03099979 L2.69318182,6.53615443 C2.95909091,6.8636867 3.56631818,6.84817423 3.88636364,6.57094825 C4.23103636,6.27237557 4.17957273,5.65249175 3.84376364,5.35316474 L2.78694545,4.27455649 C5.83808182,4.27455649 8.88919091,4.27455649 11.9403273,4.27455649 L10.8835091,5.35316474 C10.5476455,5.65249175 10.4962364,6.27237557 10.8409091,6.57094825 C11.1609545,6.84817423 11.7553909,6.86586062 12.0340909,6.53615443 L14.4886364,4.03099979 C14.6640818,3.85439753 14.7208364,3.66393062 14.7272727,3.43950495 C14.724,3.22126144 14.6284909,2.97451206 14.4886364,2.8480101 L12.0340909,0.342855464 C11.7383455,0.0728137113 11.1550364,-0.0149195876 10.8409091,0.308061649 C10.5268091,0.63104567 10.5476727,1.22651814 10.8835091,1.52584515 L11.9403273,2.6044534 C8.88919091,2.6044534 5.83808182,2.6044534 2.78694545,2.6044534 L3.84376364,1.52584515 C4.17957273,1.22651814 4.20049091,0.63104567 3.88636364,0.308061649 C3.52028182,-0.00761845361 3.08656364,0.0637728866 2.69318182,0.342855464 Z"></path>
                    </g>
                </g>
            </g>
        </g>
    </g>
</svg>