<?xml version="1.0" encoding="UTF-8"?>
<svg width="32px" height="32px" viewBox="0 0 32 32" version="1.1" xmlns="http://www.w3.org/2000/svg" xmlns:xlink="http://www.w3.org/1999/xlink">
    <!-- Generator: Sketch 47 (45396) - http://www.bohemiancoding.com/sketch -->
    <title>decision</title>
    <desc>Created with Sketch.</desc>
    <defs></defs>
    <g id="polish" stroke="none" stroke-width="1" fill="none" fill-rule="evenodd">
        <g id="decision" fill-rule="nonzero" fill="#73708C">
            <g id="Group-8" transform="translate(2.000000, 5.000000)">
                <g id="arrow" transform="translate(0.000000, 4.400000)">
                    <g id="Group">
                        <path d="M0.307869955,9.56175256 L6.85295632,16.9291944 C7.27436086,17.4320223 8.10726995,17.4768 8.59596995,17.039133 C9.08458814,16.601507 9.1339245,15.7665712 8.68097905,15.2919851 L3.95111086,9.97105488 L16.7727686,9.97105488 C17.4505504,9.97105488 18.0000004,9.42128 18.0000004,8.74314791 C18.0000004,8.06497488 17.4505504,7.5152614 16.7727686,7.5152614 L3.95111086,7.5152614 L8.68097905,2.19433116 C9.1339245,1.71974512 9.07264268,0.886323721 8.58398359,0.448656744 C8.0953245,0.0110306977 7.27436086,0.0543348837 6.85295632,0.55712186 L0.307869955,7.92454326 C-0.119466409,8.52020093 -0.0854300455,9.05495442 0.307869955,9.56175256 Z" id="Shape"></path>
                    </g>
                </g>
                <g id="arrow-copy" transform="translate(18.000000, 8.800000) scale(-1, 1) translate(-18.000000, -8.800000) translate(9.000000, 0.000000)">
                    <g id="Group">
                        <path d="M0.307869955,9.56175256 L6.85295632,16.9291944 C7.27436086,17.4320223 8.10726995,17.4768 8.59596995,17.039133 C9.08458814,16.601507 9.1339245,15.7665712 8.68097905,15.2919851 L3.95111086,9.97105488 L16.7727686,9.97105488 C17.4505504,9.97105488 18.0000004,9.42128 18.0000004,8.74314791 C18.0000004,8.06497488 17.4505504,7.5152614 16.7727686,7.5152614 L3.95111086,7.5152614 L8.68097905,2.19433116 C9.1339245,1.71974512 9.07264268,0.886323721 8.58398359,0.448656744 C8.0953245,0.0110306977 7.27436086,0.0543348837 6.85295632,0.55712186 L0.307869955,7.92454326 C-0.119466409,8.52020093 -0.0854300455,9.05495442 0.307869955,9.56175256 Z" id="Shape"></path>
                    </g>
                </g>
            </g>
        </g>
    </g>
</svg>