<?xml version="1.0" encoding="UTF-8"?>
<svg width="32px" height="32px" viewBox="0 0 32 32" version="1.1" xmlns="http://www.w3.org/2000/svg" xmlns:xlink="http://www.w3.org/1999/xlink">
    <!-- Generator: Sketch 47 (45396) - http://www.bohemiancoding.com/sketch -->
    <title>discovery</title>
    <desc>Created with Sketch.</desc>
    <defs></defs>
    <g id="polish" stroke="none" stroke-width="1" fill="none" fill-rule="evenodd">
        <g id="discovery" stroke="#73708C" fill-rule="nonzero" fill="#73708C">
            <g transform="translate(3.000000, 3.000000)" id="Shape">
                <path d="M25.751062,24.5497026 L18.8371566,17.6357972 C20.491079,15.7017842 21.3953554,13.269612 21.3953554,10.6975361 C21.3953554,7.83998867 20.2823563,5.1537808 18.2619654,3.13338997 C16.2412914,1.11271594 13.5548003,0 10.6975361,0 C7.83998867,0 5.1537808,1.11299915 3.13338997,3.13338997 C1.11271594,5.1537808 0,7.83998867 0,10.6975361 C0,13.5550835 1.11299915,16.2412914 3.13338997,18.2619654 C5.1537808,20.2826395 7.83998867,21.3953554 10.6975361,21.3953554 C13.269612,21.3953554 15.701501,20.491079 17.6357972,18.8371566 L24.5497026,25.751062 C24.7156613,25.9170207 24.9331634,26 25.1503823,26 C25.3676012,26 25.5851034,25.9170207 25.751062,25.751062 C26.0829793,25.4197111 26.0829793,24.8816199 25.751062,24.5497026 Z M10.6975361,19.6964033 C8.29396771,19.6964033 6.03426791,18.7601246 4.33474936,17.0606061 C2.63494761,15.3608043 1.69895214,13.1011045 1.69895214,10.6975361 C1.69895214,8.29396771 2.63494761,6.03426791 4.33474936,4.33474936 C6.03426791,2.63523081 8.29368451,1.69895214 10.6975361,1.69895214 C13.1008213,1.69895214 15.3608043,2.63523081 17.0606061,4.33503257 C18.7601246,6.03426791 19.6964033,8.29396771 19.6964033,10.6975361 C19.6964033,13.1011045 18.7601246,15.3608043 17.0606061,17.0606061 C15.3608043,18.7601246 13.1008213,19.6964033 10.6975361,19.6964033 Z"></path>
            </g>
        </g>
    </g>
</svg>