<?xml version="1.0" encoding="UTF-8"?>
<svg width="32px" height="32px" viewBox="0 0 32 32" version="1.1" xmlns="http://www.w3.org/2000/svg" xmlns:xlink="http://www.w3.org/1999/xlink">
    <!-- Generator: Sketch 47 (45396) - http://www.bohemiancoding.com/sketch -->
    <title>reward</title>
    <desc>Created with Sketch.</desc>
    <defs></defs>
    <g id="polish" stroke="none" stroke-width="1" fill="none" fill-rule="evenodd">
        <g id="reward" stroke="#73708C" stroke-width="0.5" fill="#73708C" fill-rule="nonzero">
            <g transform="translate(2.000000, 4.000000)" id="Shape">
                <path d="M5.89889188,24.1975309 C5.5701013,24.1975309 5.26628588,24.107232 5.00948251,23.9254912 C4.49470048,23.5622953 4.27726971,22.9107717 4.41301703,22.1380875 L4.80762449,19.891474 C4.88930794,19.4274063 5.3429743,19.1136462 5.81926521,19.1948009 C6.29673142,19.2739553 6.61729489,19.7143053 6.53561144,20.1786587 L6.14452988,22.4038406 L11.0405419,19.8989036 C12.1564906,19.3268202 13.8418729,19.3268202 14.9598784,19.8989036 L19.8538336,22.4032691 L18.9188813,17.1024956 C18.7058579,15.8920333 19.2273979,14.3335202 20.1306171,13.4768237 L24.0905015,9.72256165 L18.6182979,8.94902021 C17.3695401,8.77242301 16.0064843,7.8091396 15.4479223,6.70840756 L13.000357,1.88170329 L10.5527918,6.70869332 C9.99452359,7.80971111 8.63176156,8.77328028 7.38241613,8.94959172 L1.90991878,9.72341892 L5.86980317,13.4773952 C6.77360998,14.3338059 7.32864609,15.6985765 7.16145946,16.6515727 L6.94520399,17.8826094 C6.86352054,18.3461056 6.41044183,18.6587227 5.93356327,18.5792825 C5.45609706,18.4998424 5.13553359,18.0597781 5.21721704,17.5951389 L5.43347251,16.3643879 C5.48871168,16.0503421 5.2028196,15.2256503 4.64631437,14.6984305 L0.669681934,10.9287376 C0.0926089248,10.3815149 -0.125997144,9.73027706 0.0705720227,9.14219125 C0.267141189,8.55381969 0.837456215,8.15176102 1.63489824,8.03888741 L7.13002014,7.2619169 C7.79906049,7.16733167 8.68141805,6.54409787 8.98023844,5.95401177 L11.4386752,1.10616155 C11.7950854,0.403487597 12.3642251,1.51787161e-07 12.9997694,1.51787161e-07 C13.6359013,-0.000285604194 14.2056287,0.402916085 14.5614512,1.10616155 L17.0201818,5.95401177 C17.319296,6.54381212 18.2016536,7.16733167 18.8704001,7.2619169 L24.3652282,8.03888741 C25.1626702,8.15176102 25.7326914,8.55381969 25.9295544,9.14219125 C26.1258297,9.73027706 25.9075175,10.3815149 25.3301506,10.9284519 L21.3546935,14.6984305 C20.8704693,15.1573547 20.5334516,16.1657875 20.6474559,16.8147393 L21.5862279,22.137516 C21.722269,22.9107717 21.5054259,23.5617238 20.9906439,23.9254912 C20.4776248,24.2881155 19.7721501,24.2884013 19.0587421,23.9226336 L14.1442192,21.4076952 C13.5451092,21.1013648 12.455311,21.1013648 11.8573764,21.4076952 L6.94167809,23.9226336 C6.58438645,24.1058032 6.22885776,24.1975309 5.89889188,24.1975309 Z"></path>
            </g>
        </g>
    </g>
</svg>